<?xml version="1.0" standalone="no"?>
<!DOCTYPE svg PUBLIC "-//W3C//DTD SVG 20010904//EN"
 "http://www.w3.org/TR/2001/REC-SVG-20010904/DTD/svg10.dtd">
<svg version="1.0" xmlns="http://www.w3.org/2000/svg"
 width="512.000000pt" height="512.000000pt" viewBox="0 0 512.000000 512.000000"
 preserveAspectRatio="xMidYMid meet">
<metadata>
Created by potrace 1.16, written by Peter Selinger 2001-2019
</metadata>
<g transform="translate(0.000000,512.000000) scale(0.100000,-0.100000)"
fill="#DAA520" stroke="none">
<path d="M1785 4870 l-39 -40 44 -45 45 -45 -83 -82 -82 -83 -45 45 -45 45
-562 -563 -563 -562 45 -45 44 -45 -82 -82 -83 -81 -45 43 -44 44 -42 -42 -42
-42 32 -33 c18 -18 29 -37 25 -42 -5 -4 -3 -5 3 -2 14 8 67 -46 57 -58 -5 -4
-3 -5 3 -2 12 7 67 -45 59 -56 -3 -4 -2 -5 2 -2 10 8 63 -47 56 -58 -3 -6 -2
-7 4 -4 9 6 147 -124 141 -134 -2 -2 -1 -3 1 -1 10 6 60 -52 54 -62 -3 -6 -2
-8 2 -3 12 10 66 -43 58 -57 -3 -6 -2 -8 2 -3 11 10 66 -43 58 -56 -3 -6 -2
-7 4 -4 11 7 146 -126 138 -136 -3 -4 -2 -5 2 -2 11 8 63 -47 56 -59 -3 -6 -2
-8 2 -3 12 10 66 -43 58 -57 -3 -6 -2 -8 2 -3 11 10 66 -43 58 -56 -3 -6 -2
-7 4 -4 13 8 146 -127 136 -138 -4 -4 -3 -5 3 -2 14 8 67 -46 57 -58 -5 -4 -3
-5 3 -2 14 8 67 -46 57 -58 -5 -4 -3 -5 3 -2 14 8 67 -46 57 -58 -5 -4 -3 -5
3 -2 14 8 67 -46 57 -59 -5 -5 -4 -6 2 -1 5 4 400 -383 917 -900 l908 -908 42
42 42 43 -44 45 -45 45 83 82 82 83 45 -45 45 -45 562 563 563 562 -45 45 -45
45 83 82 82 83 45 -45 45 -44 43 42 42 42 -1540 1540 c-847 847 -1542 1540
-1545 1540 -3 0 -24 -18 -45 -40z m273 -517 l-83 -83 -82 82 -83 83 82 82 83
83 82 -82 83 -83 -82 -82z m-45 -1245 l-418 -418 -402 402 -403 403 417 417
418 418 402 -402 403 -403 -417 -417z m427 1019 c0 -4 -35 -44 -77 -88 l-77
-80 -83 83 -83 83 82 82 83 83 77 -77 c43 -43 78 -81 78 -86z m235 -227 l80
-80 -83 -83 -82 -82 -82 82 -83 83 80 80 c44 44 82 80 85 80 3 0 41 -36 85
-80z m309 -309 l78 -79 -82 -82 -82 -83 -83 83 -83 82 82 79 c44 43 83 79 86
79 3 0 41 -35 84 -79z m-21 -1433 l-418 -418 -402 402 -403 403 417 417 418
418 402 -402 403 -403 -417 -417z m325 965 l-83 -83 -82 82 -83 83 82 82 83
83 82 -82 83 -83 -82 -82z m-2520 -60 l-83 -83 -82 82 -83 83 82 82 83 83 82
-82 83 -83 -82 -82z m2826 -82 c91 -91 92 -73 -15 -182 l-67 -67 -82 83 -82
82 78 82 c43 44 80 81 84 81 3 0 41 -36 84 -79z m-2517 -227 l-82 -83 -83 82
-82 82 82 82 83 83 82 -82 82 -81 -82 -83z m2828 -84 l80 -80 -83 -83 -82 -82
-82 82 -83 83 80 80 c44 44 82 80 85 80 3 0 41 -36 85 -80z m-2520 -60 l80
-80 -83 -83 -82 -82 -82 82 -83 83 80 80 c44 44 82 80 85 80 3 0 41 -36 85
-80z m2823 -407 l-83 -83 -82 82 -83 83 82 82 83 83 82 -82 83 -83 -82 -82z
m-295 -995 l-418 -418 -402 402 -403 403 417 417 418 418 402 -402 403 -403
-417 -417z m-2224 1098 l83 -84 -82 -82 -83 -82 -81 81 -81 81 66 67 c52 53
89 94 94 103 0 0 38 -38 84 -84z m2829 -413 l-83 -83 -82 82 -83 83 82 82 83
83 82 -82 83 -83 -82 -82z m-2520 -60 l-83 -83 -82 82 -83 83 82 82 83 83 82
-82 83 -83 -82 -82z m308 -145 l81 -83 -82 -81 -83 -82 -83 84 -84 84 80 80
c44 44 82 80 85 80 3 0 42 -37 86 -82z m309 -308 l80 -80 -83 -83 -82 -82 -82
82 -83 83 80 80 c44 44 82 80 85 80 3 0 41 -36 85 -80z m303 -467 l-83 -83
-77 77 c-43 43 -78 82 -78 88 0 5 35 45 77 87 l78 78 82 -82 83 -83 -82 -82z
m310 -310 l-83 -83 -82 82 -83 83 82 82 83 83 82 -82 83 -83 -82 -82z"/>
</g>
</svg>
